
<svg xmlns="http://www.w3.org/2000/svg" width="203.498" height="148.028" viewBox="0 0 203.498 148.028">
  <g transform="translate(-2.502 -75.019)">
    <path id="Path_341" data-name="Path 341" d="M259.911,93.342a9.339,9.339,0,0,0,3.3-7.331c0-6.475-5.353-10.7-11.949-10.7H236.447v37.46h15.895c6.758,0,12.218-4.334,12.218-10.97A9.651,9.651,0,0,0,259.911,93.342ZM251.26,83.335a3.318,3.318,0,0,1,0,6.636H245.1V83.335Zm1.082,21.405H245.1V97.569h7.245a3.585,3.585,0,0,1,0,7.171Z" fill="#fff"/>
    <path id="Path_342" data-name="Path 342" d="M280.758,104.526V97.89h13.517V89.756H280.758V83.549h14.868V75.307H272.108v37.46H295.9v-8.241Z" fill="#fff"/>
    <path id="Path_343" data-name="Path 343" d="M329.431,75.307H301.318v8.241h9.731v29.218H319.7V83.549h9.731Z" fill="#fff"/>
    <path id="Path_344" data-name="Path 344" d="M361.872,75.307H333.759v8.241h9.731v29.218h8.65V83.549h9.732Z" fill="#fff"/>
    <path id="Path_345" data-name="Path 345" d="M377.553,104.526V97.89h13.516V89.756H377.553V83.549h14.868V75.307H368.9v37.46h23.788v-8.241Z" fill="#fff"/>
    <path id="Path_346" data-name="Path 346" d="M420.711,112.767h9.3l-8.055-13.753a12.336,12.336,0,0,0,6.974-10.863,12.879,12.879,0,0,0-12.975-12.843H400.815v37.46h8.651V100.459h4.109ZM409.466,83.335h6.488a4.844,4.844,0,0,1,0,9.633h-6.488Z" fill="#fff"/>
    <path id="Path_347" data-name="Path 347" d="M249.692,169.171c8.218,0,14.057-4.281,14.057-11.505,0-7.92-6.434-9.9-12.164-11.613-5.893-1.766-6.812-2.943-6.812-4.656,0-1.5,1.351-2.836,4.054-2.836,3.46,0,5.245,1.659,6.542,4.335l7.3-4.228a14.694,14.694,0,0,0-13.841-8.455c-6.541,0-12.705,4.174-12.705,11.4,0,7.17,5.515,9.846,11.137,11.4,5.677,1.552,7.84,2.462,7.84,4.763,0,1.445-1.027,3.05-5.136,3.05a7.927,7.927,0,0,1-7.948-5.191l-7.461,4.281C236.663,165.425,241.745,169.171,249.692,169.171Z" fill="#fff"/>
    <path id="Path_348" data-name="Path 348" d="M289.11,169.171a19.48,19.48,0,1,0-19.68-19.479A19.412,19.412,0,0,0,289.11,169.171Zm0-8.348a11.131,11.131,0,1,1,11.029-11.131A10.709,10.709,0,0,1,289.11,160.823Z" fill="#fff"/>
    <path id="Path_349" data-name="Path 349" d="M339.881,139.2v-8.241H316.9v37.46h8.651V154.669h14.057v-8.241H325.554V139.2Z" fill="#fff"/>
    <path id="Path_350" data-name="Path 350" d="M373.646,130.962H345.532V139.2h9.732v29.219h8.65V139.2h9.732Z" fill="#fff"/>
    <path id="Path_351" data-name="Path 351" d="M388.408,168.422h9.839l6.164-22.1,6.163,22.1h9.84l10.434-37.46h-9.083l-6.541,26.222-7.3-26.222H400.9l-7.3,26.222-6.542-26.222h-9.083Z" fill="#fff"/>
    <path id="Path_352" data-name="Path 352" d="M459.773,168.422h9.462l-12.868-37.46H445.338l-12.867,37.46h9.461l1.892-5.886h14.057Zm-13.354-13.914,4.434-13.753,4.433,13.753Z" fill="#fff"/>
    <path id="Path_353" data-name="Path 353" d="M495.6,168.422h9.3l-8.055-13.753a12.336,12.336,0,0,0,6.974-10.863,12.879,12.879,0,0,0-12.976-12.844H475.7v37.46h8.651V156.114h4.109Zm-11.245-29.433h6.487a4.844,4.844,0,0,1,0,9.633h-6.487Z" fill="#fff"/>
    <path id="Path_354" data-name="Path 354" d="M520.862,160.181v-6.636h13.516v-8.134H520.862V139.2H535.73v-8.241H512.212v37.46H536v-8.241Z" fill="#fff"/>
    <path id="Path_355" data-name="Path 355" d="M273.913,204.491H254.937v2.675h16.057c-.6,7.011-6.164,12.63-15.355,12.63-10.164,0-17.03-7.385-17.03-16.59s6.866-16.589,16.814-16.589a15.413,15.413,0,0,1,13.733,7.813l2.541-1.5a18.691,18.691,0,0,0-16.274-9.044c-11.516,0-19.679,8.616-19.679,19.318s8.163,19.319,19.9,19.319c11.3,0,18.274-7.545,18.274-16.589Z" fill="#fff"/>
    <path id="Path_356" data-name="Path 356" d="M308.235,221.936h3.3L302.126,206.2a11.033,11.033,0,0,0-2.866-21.727H284.338v37.46H287.2V206.578h11.948ZM287.2,187.152H299.26a8.375,8.375,0,0,1,0,16.75H287.2Z" fill="#fff"/>
    <path id="Path_357" data-name="Path 357" d="M338.094,222.525a19.32,19.32,0,1,0-19.517-19.319A19.308,19.308,0,0,0,338.094,222.525Zm0-2.729a16.59,16.59,0,1,1,16.652-16.59A16.5,16.5,0,0,1,338.094,219.8Z" fill="#fff"/>
    <path id="Path_358" data-name="Path 358" d="M381.157,222.525c8.326,0,13.895-5.191,13.895-13.111V184.476h-2.865v24.938c0,6.1-3.839,10.382-11.03,10.382-7.136,0-10.975-4.281-10.975-10.382V184.476h-2.865v24.938C367.317,217.334,372.832,222.525,381.157,222.525Z" fill="#fff"/>
    <path id="Path_359" data-name="Path 359" d="M420.029,184.476H407.162v37.46h2.866V207.648h10a11.588,11.588,0,1,0,0-23.172Zm0,20.5h-10v-17.82h10a8.91,8.91,0,1,1,0,17.82Z" fill="#fff"/>
    <path id="Path_360" data-name="Path 360" d="M204.959,76.947a2.811,2.811,0,0,1-1.238,3.3l-46.487,27.486,45.52,7.609a2.81,2.81,0,0,1,0,5.543l-89.088,14.879,73.623,75.314a2.81,2.81,0,0,1-2.989,4.6l-21.621-8.032,7.145,11.067a2.81,2.81,0,0,1-2.93,4.276L138.415,217.1a2.808,2.808,0,0,1-2.09-1.842l-7.557-22.081-23.924-16.821-.009-.006L88.247,164.774,44.617,144.2a2.81,2.81,0,0,1-1.607-2.372l-1.687-27.92L6.7,133.612a2.81,2.81,0,0,1-3.675-4.079l38.2-53.34a2.81,2.81,0,0,1,2.98-1.087L89.868,86.758,202,75.034A2.81,2.81,0,0,1,204.959,76.947ZM84.625,91.221,46.365,81.457l.3,27.679L48.2,134.472ZM55.767,143.246l32.859,15.492,13.664-21.323Zm51.558-3.27-13.841,21.6,14.584,10.174,16.891,11.876ZM119.7,155.6l14.037,34.744.027.068.027.075,7.333,21.428,20.34,4.208L153.4,203.636Zm37.83,44.134,16.976,6.307-44.46-45.481Zm-35.4-71.083,27.6-16.475,35.511,5.935Zm-12.88,1.144,38.481-22.974.01-.006,42.035-24.854L93.689,92.01ZM88.826,94.959,52.591,137.98l51.3-6.431Zm-47.8,12.653L40.8,86.449,15.055,122.391Z" fill="#f52747" fill-rule="evenodd"/>
  </g>
</svg>
